<svg width="83" height="61" viewBox="0 0 83 61" fill="none" xmlns="http://www.w3.org/2000/svg">
<path d="M48.7949 21.5645H73.2734V25.1387H48.7949V21.5645Z" fill="white"/>
<path d="M48.7949 28.7129H73.2734V32.2871H48.7949V28.7129Z" fill="white"/>
<path d="M58.5215 0H9.88867V26.1856L6.74472 23.8749L3.3059 26.4023L12.3203 33.0273L21.3346 26.4024L17.8957 23.8751L14.752 26.1856V3.57303H53.6582V7.26758H29.3418V35.8613H0V53.8516H14.752V57.4258H9.88867V61H58.5215V49.2305L61.6654 51.5411L65.1043 49.0137L56.0898 42.3887L47.0756 49.0136L50.5144 51.5409L53.6582 49.2305V57.4258H19.6152V53.8516H34.2051V39.4355H83V7.26758H58.5215V0ZM29.3418 50.2773H4.86328V39.4355H29.3418V50.2773ZM78.1367 35.8613H34.2051V17.989H78.1367V35.8613ZM78.1367 10.8406V14.416H34.2051V10.8406H78.1367Z" fill="white"/>
<path d="M39.0684 21.5645H43.9316V25.1387H39.0684V21.5645Z" fill="white"/>
<path d="M39.0684 28.7129H43.9316V32.2871H39.0684V28.7129Z" fill="white"/>
</svg>
