<svg width="30" height="30" viewBox="0 0 30 30" fill="none" xmlns="http://www.w3.org/2000/svg">
<path d="M10.0974 16.2814C8.59662 16.2814 7.37561 17.7463 7.37561 19.5476C7.37561 21.3489 8.59662 22.8138 10.0974 22.8138C11.5983 22.8138 12.8193 21.3489 12.8193 19.5476C12.8193 17.7463 11.5983 16.2814 10.0974 16.2814ZM10.0974 21.7251C9.19706 21.7251 8.46434 20.7485 8.46434 19.5476C8.46434 18.3468 9.19706 17.3702 10.0974 17.3702C10.9978 17.3702 11.7305 18.3468 11.7305 19.5476C11.7305 20.7485 10.9984 21.7251 10.0974 21.7251Z" fill="#62929A" fill-opacity="0.63"/>
<path d="M20.4404 16.2814C18.9396 16.2814 17.7186 17.7463 17.7186 19.5476C17.7186 21.3489 18.9396 22.8138 20.4404 22.8138C21.9412 22.8138 23.1622 21.3489 23.1622 19.5476C23.1622 17.7463 21.9412 16.2814 20.4404 16.2814ZM20.4404 21.7251C19.54 21.7251 18.8073 20.7485 18.8073 19.5476C18.8073 18.3468 19.54 17.3702 20.4404 17.3702C21.3408 17.3702 22.0735 18.3468 22.0735 19.5476C22.0735 20.7485 21.3413 21.7251 20.4404 21.7251Z" fill="#62929A" fill-opacity="0.63"/>
<path d="M21.2711 13.5596C21.2445 13.5596 21.2167 13.5596 21.19 13.5602C20.6859 13.5689 20.1813 13.5895 19.6767 13.6097C19.2172 13.6282 18.7578 13.6467 18.2989 13.656L17.5014 13.6728C16.1171 13.7017 14.6827 13.7311 13.282 13.7256C12.6429 13.7229 12.0033 13.699 11.3648 13.675C10.4949 13.6424 9.59667 13.6075 8.705 13.6298C7.46765 13.6598 6.42683 14.055 5.61028 14.8051C4.25426 16.0512 3.69357 17.7039 3.89661 19.8579C4.19166 22.9842 5.4535 24.583 8.25263 25.3751C10.6059 26.0408 12.9696 26.1007 14.9603 26.0724L15.6233 26.0757C15.8471 26.0773 16.0708 26.0795 16.2945 26.0795C16.5705 26.0795 16.8465 26.0768 17.1225 26.068C19.0795 26.0054 20.7948 25.7131 22.3659 25.1731C24.091 24.5808 25.2396 23.4496 25.7785 21.8117C26.19 20.5596 26.3109 19.3734 26.1481 18.1851C25.883 16.2526 24.1971 13.5596 21.2711 13.5596ZM24.7447 21.472C24.312 22.7877 23.4181 23.6614 22.0126 24.1437C20.5455 24.6473 18.9347 24.9211 17.0882 24.9799C16.6032 24.9951 16.1182 24.9907 15.6331 24.9875L14.9532 24.9837C13.0343 25.0109 10.7681 24.9554 8.54985 24.3272C6.19983 23.6625 5.23249 22.423 4.98099 19.7561C4.81224 17.9641 5.25916 16.607 6.3468 15.607C6.96357 15.0408 7.76542 14.742 8.73113 14.718C9.58905 14.6984 10.4709 14.7305 11.3234 14.7627C11.9745 14.7872 12.6261 14.8117 13.2771 14.8144C14.6968 14.8209 16.1334 14.7904 17.5243 14.761L18.3207 14.7447C18.7872 14.7349 19.2537 14.7158 19.7202 14.6973C20.2162 14.6772 20.7121 14.6571 21.208 14.6489C21.2276 14.6483 21.2472 14.6483 21.2668 14.6483C23.515 14.6483 24.8634 16.8378 25.0686 18.3342C25.2096 19.3544 25.1029 20.3811 24.7447 21.472Z" fill="#62929A" fill-opacity="0.63"/>
<path d="M28.2341 10.1034C27.9102 9.6576 27.7622 9.39521 27.8084 8.91889C27.9048 7.91563 27.7676 6.90583 27.6348 5.92978L27.6261 5.86554C27.4486 4.55689 27.1068 3.30811 26.6098 2.15351L26.4328 1.74306L25.6288 1.91399C24.5123 2.14861 23.3572 2.3914 22.3044 2.99946C21.6054 3.40338 20.9097 3.83397 20.2374 4.24987C19.7872 4.52858 19.337 4.8073 18.8841 5.07893C18.8596 5.09363 18.8106 5.10561 18.797 5.10561C16.3621 4.68046 13.8335 4.6761 11.2793 5.09309C11.2478 5.09853 11.1449 5.08111 11.0632 5.03266C10.7823 4.86445 10.5085 4.68373 10.2352 4.50354C9.91787 4.29396 9.59996 4.08492 9.27334 3.89385C7.71536 2.97932 5.99408 2.0969 3.96414 1.83778L3.56675 1.78661L3.35499 2.24551C3.31525 2.32934 3.2815 2.40174 3.25374 2.47687C2.67127 4.04682 2.32015 5.69298 2.20638 7.42243C2.16664 8.02178 2.12581 8.64181 2.214 9.26075C2.2434 9.46598 2.2189 9.50735 2.13888 9.60751C1.40562 10.5215 0.881394 11.4774 0.535722 12.5297C-0.0451164 14.2967 -0.150179 16.2559 0.204203 18.6941C0.498161 20.7338 0.998433 22.2221 1.82478 23.5188C3.56294 26.245 6.24612 27.7806 9.80028 28.0833C11.5765 28.2346 13.3789 28.2575 15.146 28.2575C15.5259 28.2575 15.9043 28.2564 16.2804 28.2553C16.7763 28.2537 17.2728 28.2526 17.7676 28.2537C20.0431 28.2548 21.858 27.9586 23.508 27.3125C26.4454 26.1633 28.3985 24.0229 29.3125 20.9499C29.8221 19.2379 30.0501 17.4175 29.9903 15.5384C29.9239 13.4447 29.3327 11.6162 28.2341 10.1034ZM28.2695 20.6396C27.4443 23.4121 25.7573 25.2635 23.1117 26.2989C21.5929 26.8939 19.9162 27.1753 17.7703 27.1649C17.2733 27.1639 16.7758 27.1649 16.2782 27.1666C14.1764 27.1726 12.0033 27.1786 9.89337 26.9984C6.65004 26.7224 4.3109 25.3925 2.74313 22.9336C2.00333 21.7735 1.5526 20.4181 1.2815 18.5378C0.947263 16.2406 1.03654 14.4927 1.57002 12.8694C1.87432 11.9434 2.33812 11.0991 2.98809 10.288C3.27279 9.93305 3.36044 9.59064 3.2913 9.1067C3.2189 8.59989 3.25646 8.03756 3.29566 7.44039C3.39582 5.91236 3.70992 4.411 4.2287 2.97823C5.89718 3.27327 7.37132 4.0392 8.72135 4.83179C9.03164 5.01361 9.33322 5.21285 9.63425 5.411C9.92113 5.60044 10.2086 5.78933 10.5036 5.96571C10.7976 6.14099 11.1525 6.21611 11.4546 6.16603C13.8868 5.76919 16.294 5.77246 18.6108 6.17746C18.8776 6.22265 19.196 6.1595 19.4426 6.01198C19.9004 5.73707 20.3545 5.45618 20.809 5.17474C21.4851 4.75613 22.1607 4.33805 22.8482 3.94121C23.7295 3.43223 24.7241 3.21611 25.7774 2.99401C26.1449 3.94121 26.4029 4.95428 26.5466 6.01034L26.5553 6.07458C26.6794 6.98966 26.8079 7.93577 26.7235 8.81274C26.6397 9.68046 26.9734 10.2205 27.3523 10.742C28.3338 12.0936 28.8406 13.6739 28.9015 15.5716C28.9587 17.3353 28.7458 19.0403 28.2695 20.6396Z" fill="#62929A" fill-opacity="0.63"/>
</svg>
