<svg width="83" height="61" viewBox="0 0 83 61" fill="none" xmlns="http://www.w3.org/2000/svg">
<g clip-path="url(#clip0)">
<path d="M60.3253 5.69659C55.2868 2.01968 48.616 0.00012207 41.5201 0.00012207C41.4559 0.00012207 41.3903 0.000241211 41.3261 0.000598633C34.3985 0.03646 27.8394 2.03123 22.8568 5.61748C17.8732 9.20445 15.0248 13.9825 14.8366 19.0711C14.6403 24.3739 17.2831 29.3963 22.2784 33.2132C26.212 36.2189 28.3782 40.2166 28.3782 44.4703V52.6531C28.3782 54.3343 29.9664 55.7472 32.0975 56.1262V57.2173C32.0975 59.3031 34.4064 61 37.2445 61H45.7552C48.5933 61 50.9022 59.3031 50.9022 57.2173V56.1325C53.0519 55.7633 54.6584 54.344 54.6584 52.6531V44.4706C54.6584 40.2725 56.8842 36.2285 60.9261 33.0837C65.6233 29.4288 68.2103 24.6463 68.2103 19.617C68.2103 14.351 65.41 9.40723 60.3253 5.69659ZM47.6602 57.2174C47.6602 57.9893 46.8057 58.6173 45.7554 58.6173H37.2446C36.1943 58.6173 35.3399 57.9893 35.3399 57.2174V56.227H47.6602V57.2174ZM51.4164 52.6531C51.4164 53.3098 50.6895 53.8442 49.7958 53.8442H49.2813H33.7188H33.2412C32.3475 53.8442 31.6206 53.3098 31.6206 52.6531V45.877H51.4164V52.6531ZM38.9719 43.4942V28.4245H44.0223V43.4941H38.9719V43.4942ZM58.5693 31.4474C54.2699 34.7929 51.7708 39.0383 51.4514 43.4941H47.2645V28.4245H48.7215C51.3127 28.4245 53.4209 26.8752 53.4209 24.9707V24.786C53.4209 22.8816 51.3127 21.3323 48.7215 21.3323C46.1303 21.3323 44.0223 22.8816 44.0223 24.786V26.0416H38.9719V24.786C38.9719 22.8816 36.8638 21.3323 34.2727 21.3323H33.9533C31.3622 21.3323 29.2541 22.8816 29.2541 24.786V24.9707C29.2541 26.875 31.3622 28.4245 33.9533 28.4245H35.7297V43.4941H31.5872C31.2777 38.9878 28.8297 34.7816 24.6152 31.5613C20.2269 28.2082 17.905 23.7954 18.0776 19.1359C18.4171 9.96326 28.8565 2.4481 41.3489 2.38329C47.654 2.35077 53.5742 4.12787 58.041 7.38744C62.5083 10.6474 64.9683 14.9906 64.9683 19.617C64.9683 24.0354 62.6957 28.2368 58.5693 31.4474ZM47.2645 26.0416V24.786C47.2645 24.1954 47.9181 23.7151 48.7215 23.7151C49.5251 23.7151 50.1787 24.1956 50.1787 24.786V24.9707C50.1787 25.5613 49.5251 26.0416 48.7215 26.0416H47.2645ZM35.7296 24.786V26.0416H33.9532C33.1498 26.0416 32.4961 25.5613 32.4961 24.9707V24.786C32.4961 24.1954 33.1498 23.7151 33.9532 23.7151H34.2725C35.0759 23.7151 35.7296 24.1957 35.7296 24.786Z" fill="white"/>
<path d="M58.8955 14.4595C57.503 11.9187 55.1345 9.75641 52.0465 8.20639C48.8812 6.61765 45.1708 5.78844 41.3261 5.80833C40.4307 5.81298 39.71 6.35018 39.7163 7.0082C39.7226 7.66335 40.4473 8.19114 41.3371 8.19114C41.341 8.19114 41.345 8.19114 41.3488 8.19114C41.3869 8.19103 41.424 8.19091 41.4619 8.19091C47.8456 8.19091 53.5005 10.9937 55.8883 15.3498C56.1429 15.8142 56.7506 16.0964 57.3924 16.0964C57.5941 16.0964 57.7993 16.0686 57.9977 16.0097C58.828 15.7638 59.2302 15.0697 58.8955 14.4595Z" fill="white"/>
<path d="M59.7762 18.7743C59.4747 18.5527 59.0564 18.4252 58.6301 18.4252C58.2037 18.4252 57.7855 18.5527 57.484 18.7743C57.1808 18.9959 57.009 19.3032 57.009 19.6166C57.009 19.9311 57.1808 20.2373 57.484 20.4589C57.7855 20.6817 58.2021 20.808 58.6301 20.808C59.0564 20.808 59.4747 20.6817 59.7762 20.4589C60.0776 20.2373 60.2512 19.9311 60.2512 19.6166C60.2512 19.3032 60.0777 18.9959 59.7762 18.7743Z" fill="white"/>
<path d="M75.2885 5.93426C74.6553 5.46902 73.6291 5.46902 72.9958 5.93426L69.9755 8.15397C69.3425 8.61921 69.3425 9.37361 69.9755 9.83898C70.2921 10.0717 70.7069 10.1879 71.1219 10.1879C71.5369 10.1879 71.9516 10.0717 72.2682 9.83898L75.2885 7.61927C75.9215 7.15402 75.9215 6.39962 75.2885 5.93426Z" fill="white"/>
<path d="M75.2883 31.6149L72.2682 29.3952C71.6352 28.93 70.609 28.93 69.9755 29.3952C69.3425 29.8604 69.3425 30.6148 69.9755 31.0801L72.9958 33.2998C73.3124 33.5325 73.7272 33.6488 74.142 33.6488C74.5569 33.6488 74.9717 33.5324 75.2883 33.2998C75.9214 32.8345 75.9214 32.0801 75.2883 31.6149Z" fill="white"/>
<path d="M81.3789 18.4257H77.1075C76.2123 18.4257 75.4864 18.9591 75.4864 19.6171C75.4864 20.2751 76.2123 20.8085 77.1075 20.8085H81.3789C82.2741 20.8085 83 20.2751 83 19.6171C83 18.9591 82.2741 18.4257 81.3789 18.4257Z" fill="white"/>
<path d="M13.0243 8.15409L10.0042 5.93438C9.37105 5.46914 8.34489 5.46914 7.71153 5.93438C7.0785 6.39963 7.0785 7.15402 7.71153 7.61939L10.7318 9.8391C11.0484 10.0718 11.4632 10.1881 11.8781 10.1881C12.2929 10.1881 12.7077 10.0718 13.0243 9.8391C13.6574 9.37373 13.6574 8.61945 13.0243 8.15409Z" fill="white"/>
<path d="M13.0243 29.395C12.3913 28.9297 11.365 28.9297 10.7318 29.395L7.71153 31.6149C7.0785 32.0801 7.0785 32.8345 7.71153 33.2998C8.02813 33.5324 8.44297 33.6487 8.85781 33.6487C9.27265 33.6487 9.68748 33.5323 10.0041 33.2998L13.0243 31.08C13.6574 30.6147 13.6574 29.8604 13.0243 29.395Z" fill="white"/>
<path d="M5.89251 18.4257H1.62109C0.725926 18.4257 0 18.9591 0 19.6171C0 20.2751 0.725926 20.8085 1.62109 20.8085H5.89251C6.78768 20.8085 7.51361 20.2751 7.51361 19.6171C7.51361 18.9591 6.78768 18.4257 5.89251 18.4257Z" fill="white"/>
</g>
<defs>
<clipPath id="clip0">
<rect width="83" height="61" fill="white"/>
</clipPath>
</defs>
</svg>
