<svg width="39" height="31" viewBox="0 0 39 31" fill="none" xmlns="http://www.w3.org/2000/svg">
<path d="M2.34442 18.3559C2.6049 18.5697 2.90466 18.6767 3.24329 18.6767C3.58193 18.6767 3.88169 18.5697 4.14216 18.3559L19.5003 5.74374L34.8589 18.3559C35.1193 18.5697 35.4192 18.6767 35.7573 18.6767C36.0964 18.6767 36.3962 18.5697 36.6565 18.3559L38.6103 16.7511C38.8707 16.5374 39 16.2911 39 16.0135C39 15.7353 38.8698 15.4891 38.6103 15.2753L20.3985 0.320683C20.1383 0.106445 19.8389 0 19.5003 0C19.1616 0 18.8617 0.106782 18.6014 0.320683L0.39092 15.2752C0.130033 15.4891 0 15.7349 0 16.0137C0 16.2911 0.130443 16.5372 0.39092 16.7511L2.34442 18.3559Z" fill="#EFECEC"/>
<path d="M20.3985 12.6443C20.1383 12.43 19.8389 12.3232 19.5003 12.3232C19.1616 12.3232 18.8617 12.4304 18.6014 12.6443L0.39092 27.5988C0.130033 27.8127 0 28.0587 0 28.3373C0 28.6151 0.130443 28.8612 0.39092 29.0751L2.34442 30.6797C2.6049 30.8936 2.90466 30.9998 3.24329 30.9998C3.58193 30.9998 3.88169 30.8929 4.14216 30.6797L19.5003 18.0672L34.8589 30.6797C35.1193 30.8936 35.4192 31.0003 35.7573 31.0003C36.0964 31.0003 36.3962 30.8937 36.6565 30.6797L38.6103 29.0751C38.8707 28.8612 39 28.615 39 28.3373C39 28.0587 38.8698 27.8127 38.6103 27.5988L20.3985 12.6443Z" fill="#EFECEC"/>
</svg>
